# Blender 4.3.0
# www.blender.org
mtllib 1-ton-weight.mtl
o Cube
v 0.102585 1.000000 -0.255503
v 1.603035 -1.279753 -1.603035
v 0.102585 1.000000 0.255503
v 1.603035 -1.279753 1.603035
v -0.102585 1.000000 -0.255503
v -1.603035 -1.279753 -1.603035
v -0.102585 1.000000 0.255503
v -1.603035 -1.279753 1.603035
v -1.988671 -1.000000 -1.988671
v -1.988671 -1.000000 1.988671
v 1.988671 -1.000000 -1.988671
v 1.988671 -1.000000 1.988671
v 1.000000 1.000000 1.000000
v -1.000000 1.000000 1.000000
v 1.000000 1.000000 -1.000000
v -1.000000 1.000000 -1.000000
v 0.124014 1.123013 -0.459701
v -0.124013 1.123013 -0.459701
v 0.147728 1.347826 -0.458643
v -0.147728 1.347826 -0.458643
v 0.158742 1.572124 -0.360781
v -0.158741 1.572124 -0.360781
v 0.158836 1.704374 -0.132133
v -0.158836 1.704374 -0.132134
v 0.158836 1.704374 0.132134
v -0.158836 1.704374 0.132133
v 0.158741 1.572124 0.360781
v -0.158741 1.572124 0.360781
v 0.147728 1.347826 0.458643
v -0.147728 1.347826 0.458643
v 0.124013 1.123013 0.459701
v -0.124014 1.123013 0.459701
v 0.107491 1.123013 -0.333761
v -0.107491 1.123013 -0.333761
v 0.145936 1.324167 -0.362462
v -0.145935 1.324167 -0.362462
v 0.157317 1.499816 -0.286034
v -0.157316 1.499816 -0.286034
v 0.158836 1.605749 -0.105707
v -0.158836 1.605749 -0.105707
v 0.158836 1.605749 0.105707
v -0.158836 1.605749 0.105707
v 0.157316 1.499816 0.286034
v -0.157316 1.499816 0.286034
v 0.145935 1.324167 0.362462
v -0.145936 1.324167 0.362462
v 0.107491 1.123013 0.333761
v -0.107491 1.123013 0.333761
v 0.704947 1.000000 0.704947
v -0.704947 1.000000 0.704947
v 0.704947 1.000000 -0.704947
v -0.704947 1.000000 -0.704947
v 0.219911 1.000000 0.567071
v -0.219911 1.000000 0.567071
v 0.219911 1.000000 -0.567071
v -0.219911 1.000000 -0.567071
vn -0.0000 1.0000 -0.0000
vn -0.0000 0.4431 0.8964
vn -0.8964 0.4431 -0.0000
vn -0.0000 -1.0000 -0.0000
vn 0.8964 0.4431 -0.0000
vn -0.0000 0.4431 -0.8964
vn -0.5872 -0.8094 -0.0000
vn -0.0000 -0.8094 -0.5872
vn -0.0000 -0.8094 0.5872
vn 0.5872 -0.8094 -0.0000
vn -0.0000 0.0047 -1.0000
vn -0.0000 0.3999 -0.9166
vn -0.0000 0.8656 -0.5007
vn -0.0000 0.8656 0.5007
vn -0.0000 0.3999 0.9166
vn -0.0000 0.0047 1.0000
vn -0.0000 0.1413 0.9900
vn -0.0000 -0.3990 0.9170
vn -0.0000 -0.8622 0.5065
vn -0.0000 -0.8622 -0.5065
vn -0.0000 -0.3990 -0.9170
vn -0.0000 0.1413 -0.9900
vn 0.9879 -0.1398 0.0666
vn -0.9879 -0.1398 0.0666
vn -0.0000 0.5368 0.8437
vn 0.9986 -0.0515 -0.0101
vn -0.9986 -0.0515 -0.0101
vn 1.0000 -0.0079 0.0007
vn -1.0000 -0.0079 0.0007
vn 1.0000 -0.0000 -0.0000
vn -1.0000 -0.0000 -0.0000
vn 1.0000 -0.0079 -0.0007
vn -1.0000 -0.0079 -0.0007
vn 0.9986 -0.0515 0.0101
vn -0.9986 -0.0515 0.0101
vn 0.9879 -0.1398 -0.0666
vn -0.9879 -0.1398 -0.0666
vn -0.0000 0.5368 -0.8437
vn 0.9110 0.3040 -0.2787
vn -0.9110 0.3040 0.2787
vn -0.9110 0.3039 -0.2787
vn -0.0000 0.6576 0.7534
vn 0.9110 0.3039 0.2787
vn -0.0000 0.6576 -0.7534
vt 0.908469 0.110332
vt 0.908469 0.135556
vt 0.845644 0.135556
vt 0.845644 0.110332
vt 0.488990 -0.000000
vt 0.754112 0.121551
vt 0.754112 0.367439
vt 0.488990 0.488990
vt 0.518620 0.977980
vt 0.265122 0.856429
vt 0.265122 0.610541
vt 0.518620 0.488990
vt 0.441578 0.047412
vt 0.441578 0.441578
vt 0.047411 0.441578
vt 0.047412 0.047411
vt 0.518620 0.488990
vt 0.772117 0.610541
vt 0.772117 0.856429
vt -0.000000 0.488990
vt 0.265122 0.610541
vt 0.265122 0.856429
vt 0.000000 0.977980
vt 0.000000 0.000000
vt 0.488990 0.000000
vt 0.488990 0.488990
vt -0.000000 0.488990
vt 0.790387 0.036275
vt 0.790387 0.209613
vt 0.754112 0.245888
vt 0.754112 0.000000
vt 0.963725 0.036275
vt 1.000000 0.000000
vt 0.963725 0.209613
vt 1.000000 0.245888
vt 0.796396 0.441854
vt 0.765902 0.441854
vt 0.762987 0.414739
vt 0.799311 0.414739
vt 0.761633 0.385324
vt 0.800665 0.385324
vt 0.811161 0.791111
vt 0.772129 0.791111
vt 0.772117 0.763000
vt 0.811173 0.763000
vt 0.772117 0.730510
vt 0.811173 0.730510
vt 0.772129 0.702400
vt 0.811161 0.702399
vt 0.779637 0.628426
vt 0.818670 0.628426
vt 0.817316 0.657841
vt 0.780991 0.657841
vt 0.814400 0.684956
vt 0.783907 0.684956
vt 0.817298 0.807610
vt 0.812572 0.782671
vt 0.848456 0.782671
vt 0.843729 0.807610
vt 0.811173 0.763371
vt 0.849855 0.763371
vt 0.808372 0.455656
vt 0.808186 0.433486
vt 0.847242 0.433486
vt 0.847055 0.455656
vt 0.808186 0.407494
vt 0.847242 0.407494
vt 0.808372 0.385324
vt 0.847055 0.385324
vt 0.849855 0.702400
vt 0.848456 0.721700
vt 0.812572 0.721700
vt 0.811173 0.702400
vt 0.843729 0.746639
vt 0.817298 0.746639
vt 0.843143 0.615225
vt 0.815762 0.615095
vt 0.818649 0.603270
vt 0.843006 0.599742
vt 0.797375 0.371993
vt 0.769994 0.372123
vt 0.770130 0.356640
vt 0.794488 0.360168
vt 0.843126 0.824343
vt 0.817902 0.824343
vt 0.788339 0.603064
vt 0.797197 0.593874
vt 0.824798 0.359962
vt 0.815940 0.350772
vt 0.772117 0.574953
vt 0.784215 0.571704
vt 0.841020 0.331851
vt 0.828921 0.328602
vt 0.772117 0.542463
vt 0.784215 0.545712
vt 0.841020 0.299361
vt 0.828921 0.302610
vt 0.788339 0.514352
vt 0.797197 0.523542
vt 0.824798 0.271250
vt 0.815940 0.280440
vt 0.815762 0.502320
vt 0.818649 0.514145
vt 0.797375 0.259218
vt 0.794488 0.271043
vt 0.843143 0.502190
vt 0.843006 0.517674
vt 0.769994 0.259088
vt 0.770130 0.274572
vt 0.843126 0.763371
vt 0.817902 0.763371
vt 0.807338 0.095907
vt 0.807338 0.149981
vt 0.946774 0.095907
vt 0.946774 0.149981
vt 0.859024 0.488990
vt 0.858055 0.527295
vt 0.754112 0.385324
vt 0.755081 0.347018
vt 0.755081 0.284193
vt 0.754112 0.245888
vt 0.826190 0.702399
vt 0.772117 0.702399
vt 0.858055 0.590120
vt 0.859024 0.628426
vt 0.808186 0.459297
vt 0.754112 0.459297
s 0
usemtl Material
f 1/1/1 5/2/1 7/3/1 3/4/1
f 12/5/2 13/6/2 14/7/2 10/8/2
f 10/9/3 14/10/3 16/11/3 9/12/3
f 6/13/4 2/14/4 4/15/4 8/16/4
f 11/17/5 15/18/5 13/19/5 12/9/5
f 9/20/6 16/21/6 15/22/6 11/23/6
f 6/13/7 8/16/7 10/24/7 9/25/7
f 2/14/8 6/13/8 9/25/8 11/26/8
f 8/16/9 4/15/9 12/27/9 10/24/9
f 4/15/10 2/14/10 11/26/10 12/27/10
f 49/28/1 50/29/1 14/30/1 13/31/1
f 51/32/1 49/28/1 13/31/1 15/33/1
f 50/29/1 52/34/1 16/35/1 14/30/1
f 52/34/1 51/32/1 15/33/1 16/35/1
f 17/36/11 18/37/11 20/38/11 19/39/11
f 19/39/12 20/38/12 22/40/12 21/41/12
f 21/42/13 22/43/13 24/44/13 23/45/13
f 23/45/1 24/44/1 26/46/1 25/47/1
f 25/47/14 26/46/14 28/48/14 27/49/14
f 27/50/15 28/51/15 30/52/15 29/53/15
f 29/53/16 30/52/16 32/54/16 31/55/16
f 33/56/17 35/57/17 36/58/17 34/59/17
f 35/57/18 37/60/18 38/61/18 36/58/18
f 37/62/19 39/63/19 40/64/19 38/65/19
f 39/63/4 41/66/4 42/67/4 40/64/4
f 41/66/20 43/68/20 44/69/20 42/67/20
f 43/70/21 45/71/21 46/72/21 44/73/21
f 45/71/22 47/74/22 48/75/22 46/72/22
f 17/76/23 19/77/23 35/78/23 33/79/23
f 20/80/24 18/81/24 34/82/24 36/83/24
f 5/84/25 1/85/25 33/56/25 34/59/25
f 19/77/26 21/86/26 37/87/26 35/78/26
f 22/88/27 20/80/27 36/83/27 38/89/27
f 21/86/28 23/90/28 39/91/28 37/87/28
f 24/92/29 22/88/29 38/89/29 40/93/29
f 23/90/30 25/94/30 41/95/30 39/91/30
f 26/96/31 24/92/31 40/93/31 42/97/31
f 25/94/32 27/98/32 43/99/32 41/95/32
f 28/100/33 26/96/33 42/97/33 44/101/33
f 27/98/34 29/102/34 45/103/34 43/99/34
f 30/104/35 28/100/35 44/101/35 46/105/35
f 29/102/36 31/106/36 47/107/36 45/103/36
f 32/108/37 30/104/37 46/105/37 48/109/37
f 3/110/38 7/111/38 48/75/38 47/74/38
f 53/112/1 54/113/1 50/29/1 49/28/1
f 55/114/1 53/112/1 49/28/1 51/32/1
f 54/113/1 56/115/1 52/34/1 50/29/1
f 56/115/1 55/114/1 51/32/1 52/34/1
f 53/116/39 3/117/39 47/107/39 31/106/39
f 1/1/1 3/4/1 53/112/1 55/114/1
f 7/3/1 5/2/1 56/115/1 54/113/1
f 56/118/40 5/119/40 34/82/40 18/81/40
f 7/120/41 54/121/41 32/108/41 48/109/41
f 54/122/42 53/123/42 31/55/42 32/54/42
f 1/124/43 55/125/43 17/76/43 33/79/43
f 55/126/44 56/127/44 18/37/44 17/36/44
