# Blender 4.3.0
# www.blender.org
mtllib lamp_post.mtl
o Cube
v -0.216088 9.540243 -0.216088
v -0.306168 0.828082 -0.306168
v 0.216088 9.540243 -0.216088
v 0.306168 0.828082 -0.306168
v -0.216088 9.540243 0.216088
v -0.306168 0.828082 0.306168
v 0.216088 9.540243 0.216088
v 0.306168 0.828082 0.306168
v -0.216088 9.232652 -0.216088
v 0.216088 9.232652 0.216088
v 0.216088 9.232652 -0.216088
v -0.216088 9.232652 0.216088
v -0.216088 8.810743 -0.216088
v 0.216088 8.810743 -0.216088
v -0.216088 8.810743 0.216088
v 0.216088 8.810743 0.216088
v 1.050856 9.869797 0.216088
v 0.886435 10.145718 0.216088
v 0.886435 10.145718 -0.216088
v 1.050856 9.869797 -0.216088
v 2.376731 10.679109 0.216088
v 2.351093 10.999279 0.216088
v 2.351093 10.999279 -0.216088
v 2.376731 10.679109 -0.216088
v 5.064571 10.894334 0.216088
v 5.038934 11.214504 0.216088
v 5.038934 11.214504 -0.216088
v 5.064571 10.894334 -0.216088
v 5.337465 10.839062 0.319529
v 5.299554 11.312498 0.319529
v 5.299554 11.312498 -0.319529
v 5.337465 10.839062 -0.319529
v 6.751847 11.026359 0.234447
v 6.727518 11.330175 0.234447
v 6.727518 11.330175 -0.234448
v 6.751847 11.026359 -0.234448
v 6.617355 10.941549 0.319529
v 6.579444 11.414985 0.319529
v 6.579444 11.414985 -0.319529
v 6.617355 10.941549 -0.319529
v -0.216088 0.828082 0.216088
v 0.216088 0.828082 0.216088
v -0.216088 0.828082 -0.216088
v 0.216088 0.828082 -0.216088
v -0.396082 -0.000488 0.396082
v 0.396082 -0.000488 0.396082
v -0.396082 -0.000488 -0.396082
v 0.396082 -0.000488 -0.396082
vn -0.0000 1.0000 -0.0000
vn 1.0000 -0.0000 -0.0000
vn -0.0000 -0.0000 1.0000
vn 0.9942 0.1079 -0.0000
vn -0.0000 -0.0000 -1.0000
vn -1.0000 -0.0000 -0.0000
vn 0.7854 -0.6190 -0.0000
vn -0.8061 0.5918 -0.0000
vn 0.0798 -0.9968 -0.0000
vn 0.5210 -0.8536 -0.0000
vn -0.5035 0.8640 -0.0000
vn -0.3519 0.9360 -0.0000
vn -0.0798 0.9968 -0.0000
vn -0.3594 -0.0288 -0.9327
vn -0.3594 -0.0288 0.9327
vn -0.1985 -0.9801 -0.0000
vn 0.9968 0.0798 -0.0000
vn 0.5154 0.0413 0.8559
vn 0.4970 0.8677 -0.0000
vn 0.5154 0.0413 -0.8559
vn 0.5334 -0.8459 -0.0000
vn -0.0000 -1.0000 -0.0000
vn -0.0000 0.1079 0.9942
vn -0.0000 0.1079 -0.9942
vn -0.9942 0.1079 -0.0000
vt 0.804782 0.822777
vt 0.804782 0.788439
vt 0.839070 0.788439
vt 0.839070 0.822777
vt 0.829194 0.894369
vt 0.804782 0.894369
vt 0.804782 0.860032
vt 0.829194 0.860032
vt 0.360295 0.419311
vt 0.373481 0.398737
vt 0.402391 0.417257
vt 0.389205 0.437831
vt 0.897039 0.691954
vt 0.945691 0.691954
vt 0.952834 0.758050
vt 0.889895 0.758050
vt 0.415577 0.437831
vt 0.402391 0.417257
vt 0.431301 0.398736
vt 0.444487 0.419311
vt 0.889895 0.024430
vt 0.889895 0.000000
vt 0.924232 0.000000
vt 0.924232 0.024430
vt 0.889895 0.057940
vt 0.924232 0.057940
vt 0.433664 0.466052
vt 0.462574 0.447531
vt 0.342208 0.447532
vt 0.371118 0.466052
vt 0.331768 0.340920
vt 0.354596 0.329510
vt 0.804782 0.714482
vt 0.804782 0.080936
vt 0.839120 0.080936
vt 0.839120 0.714482
vt 0.000000 0.981480
vt 0.028910 1.000000
vt 0.775872 1.000000
vt 0.804782 0.981479
vt 0.889895 0.691954
vt 0.924232 0.691954
vt 0.473014 0.340920
vt 0.450186 0.329510
vt 0.511571 0.209651
vt 0.527012 0.229968
vt 0.804782 0.000000
vt 0.839120 0.000000
vt 0.839120 0.788439
vt 0.804782 0.788439
vt 0.881676 0.815503
vt 0.847338 0.815503
vt 0.847338 0.602274
vt 0.881676 0.602274
vt 0.277771 0.229968
vt 0.293211 0.209651
vt 0.881676 0.930530
vt 0.847338 0.930530
vt 0.881676 0.468465
vt 0.847338 0.468465
vt 0.847338 0.348629
vt 0.881676 0.348629
vt 0.881676 0.134463
vt 0.847338 0.134463
vt 0.839120 0.113368
vt 0.889895 0.113368
vt 0.682144 0.080071
vt 0.697584 0.100388
vt 0.107198 0.100388
vt 0.122638 0.080071
vt 0.718152 0.092547
vt 0.695321 0.062504
vt 0.776543 0.000801
vt 0.799375 0.030843
vt 0.086630 0.092547
vt 0.109461 0.062504
vt 0.839120 0.581705
vt 0.889895 0.581705
vt 0.828985 0.860032
vt 0.804782 0.860032
vt 0.804782 0.822777
vt 0.828985 0.822777
vt 0.005407 0.030844
vt 0.028239 0.000801
vt 0.839120 0.480171
vt 0.889895 0.480171
vt 0.839120 0.011387
vt 0.889895 0.011387
vt 0.000000 0.019279
vt 0.014652 -0.000000
vt 0.845880 -0.000000
vt 0.883135 -0.000000
vt 0.790130 -0.000000
vt 0.804782 0.019279
vt 0.845880 0.468465
vt 0.883135 0.468465
vt 0.972815 0.111592
vt 0.924232 0.111592
vt 0.931379 0.104434
vt 0.965668 0.104434
vt 0.972815 0.062940
vt 0.965668 0.070097
vt 0.924232 0.062940
vt 0.931379 0.070097
vt 0.924232 0.062940
vt 0.924232 0.000000
vt 0.986187 -0.000000
vt 0.986187 0.062940
vt 0.896937 0.824051
vt 0.945583 0.824051
vt 0.952827 0.889966
vt 0.889895 0.889966
vt 0.897139 0.889966
vt 0.945784 0.889966
vt 0.952826 0.955881
vt 0.889895 0.955881
vt 0.897039 0.758050
vt 0.945691 0.758050
vt 0.952834 0.824051
vt 0.889895 0.824051
s 0
usemtl Material
f 1/1/1 5/2/1 7/3/1 3/4/1
f 11/5/2 3/6/2 7/7/2 10/8/2
f 10/9/3 7/10/3 5/11/3 12/12/3
f 4/13/4 8/14/4 46/15/4 48/16/4
f 9/17/5 1/18/5 3/19/5 11/20/5
f 12/21/6 5/22/6 1/23/6 9/24/6
f 15/25/6 12/21/6 9/24/6 13/26/6
f 13/27/5 9/17/5 11/20/5 14/28/5
f 16/29/3 10/9/3 12/12/3 15/30/3
f 10/9/3 16/29/3 17/31/3 18/32/3
f 44/33/2 14/34/2 16/35/2 42/36/2
f 42/37/3 16/29/3 15/30/3 41/38/3
f 43/39/5 13/27/5 14/28/5 44/40/5
f 41/41/6 15/25/6 13/26/6 43/42/6
f 20/43/5 19/44/5 23/45/5 24/46/5
f 16/35/7 14/34/7 20/47/7 17/48/7
f 14/28/5 11/20/5 19/44/5 20/43/5
f 11/49/8 10/50/8 18/33/8 19/36/8
f 21/51/9 24/52/9 28/53/9 25/54/9
f 18/32/3 17/31/3 21/55/3 22/56/3
f 17/57/10 20/58/10 24/52/10 21/51/10
f 19/59/11 18/60/11 22/61/11 23/62/11
f 27/63/12 26/64/12 30/65/12 31/66/12
f 23/62/13 22/61/13 26/64/13 27/63/13
f 24/46/5 23/45/5 27/67/5 28/68/5
f 22/56/3 21/55/3 25/69/3 26/70/3
f 32/71/5 31/72/5 39/73/5 40/74/5
f 28/68/14 27/67/14 31/72/14 32/71/14
f 26/70/15 25/69/15 29/75/15 30/76/15
f 25/54/16 28/53/16 32/77/16 29/78/16
f 36/79/17 35/80/17 34/81/17 33/82/17
f 30/76/3 29/75/3 37/83/3 38/84/3
f 29/78/9 32/77/9 40/85/9 37/86/9
f 31/66/13 30/65/13 38/87/13 39/88/13
f 33/89/18 34/90/18 38/84/18 37/83/18
f 34/91/19 35/92/19 39/88/19 38/87/19
f 35/93/20 36/94/20 40/74/20 39/73/20
f 36/95/21 33/96/21 37/86/21 40/85/21
f 6/97/1 8/98/1 42/99/1 41/100/1
f 2/101/1 6/97/1 41/100/1 43/102/1
f 8/98/1 4/103/1 44/104/1 42/99/1
f 4/103/1 2/101/1 43/102/1 44/104/1
f 45/105/22 47/106/22 48/107/22 46/108/22
f 8/109/23 6/110/23 45/111/23 46/112/23
f 2/113/24 4/114/24 48/115/24 47/116/24
f 6/117/25 2/118/25 47/119/25 45/120/25
